<svg xmlns="http://www.w3.org/2000/svg" viewBox="0 0 1500 500" role="img" aria-label="ZK-VAR Twitter cover">
  <defs>
    <linearGradient id="bg" x1="0" x2="1" y1="0" y2="1">
      <stop offset="0" stop-color="#050606"/>
      <stop offset=".55" stop-color="#101208"/>
      <stop offset="1" stop-color="#050606"/>
    </linearGradient>
    <radialGradient id="pulse" cx="70%" cy="46%" r="55%">
      <stop offset="0" stop-color="#A8FF35" stop-opacity=".2"/>
      <stop offset=".4" stop-color="#00F5FF" stop-opacity=".08"/>
      <stop offset="1" stop-color="#000000" stop-opacity="0"/>
    </radialGradient>
    <filter id="glow" x="-30%" y="-30%" width="160%" height="160%">
      <feGaussianBlur stdDeviation="4" result="blur"/>
      <feMerge>
        <feMergeNode in="blur"/>
        <feMergeNode in="SourceGraphic"/>
      </feMerge>
    </filter>
  </defs>

  <rect width="1500" height="500" fill="url(#bg)"/>
  <rect width="1500" height="500" fill="url(#pulse)"/>

  <g opacity=".18" stroke="#A8FF35" stroke-width="1">
    <path d="M0 70h1500M0 140h1500M0 210h1500M0 280h1500M0 350h1500M0 420h1500"/>
    <path d="M80 0v500M160 0v500M240 0v500M320 0v500M400 0v500M480 0v500M560 0v500M640 0v500M720 0v500M800 0v500M880 0v500M960 0v500M1040 0v500M1120 0v500M1200 0v500M1280 0v500M1360 0v500M1440 0v500"/>
  </g>

  <g opacity=".45" stroke="#A8FF35" stroke-width="2">
    <path d="M710 500L890 245L1070 500M530 500L890 245L1250 500M350 500L890 245L1430 500"/>
    <path d="M0 500L890 245L1500 500"/>
  </g>

  <g filter="url(#glow)">
    <rect x="92" y="82" width="118" height="118" rx="24" fill="#1B1D0E"/>
    <rect x="107" y="97" width="88" height="88" rx="13" fill="#A8FF35"/>
    <path d="M128 115h41v16l-20 34h20v16h-41v-16l20-34h-20z" fill="#101208"/>
    <path d="M175 115h14v25l-14 16z" fill="#101208"/>
    <path d="M175 181v-25l18 25z" fill="#101208"/>
    <path d="M189 140h-14l14-25z" fill="#101208" opacity=".72"/>
  </g>

  <g>
    <text x="235" y="136" fill="#A8FF35" font-family="Arial Black, Impact, sans-serif" font-size="54" font-weight="900" letter-spacing="3">ZK-VAR</text>
    <text x="238" y="174" fill="#00F5FF" font-family="Consolas, 'Courier New', monospace" font-size="17" font-weight="700" letter-spacing="6">SOVEREIGN REFEREE ARENA</text>
    <text x="92" y="282" fill="#FFFFFF" font-family="Arial, sans-serif" font-size="31" font-weight="700">Decentralized sports prediction markets</text>
    <text x="92" y="326" fill="#FFFFFF" font-family="Arial, sans-serif" font-size="31" font-weight="700">with ZK-powered VAR dispute resolution.</text>
  </g>

  <g font-family="Consolas, 'Courier New', monospace" font-size="18" font-weight="700">
    <rect x="860" y="96" width="448" height="64" rx="10" fill="#0A0A0B" stroke="#A8FF35" stroke-opacity=".45"/>
    <text x="890" y="136" fill="#A8FF35">X LAYER L2</text>
    <text x="1035" y="136" fill="#00F5FF">OKB TESTNET</text>

    <rect x="860" y="184" width="448" height="64" rx="10" fill="#0A0A0B" stroke="#00F5FF" stroke-opacity=".4"/>
    <text x="890" y="224" fill="#00F5FF">SP1 ZK-VM</text>
    <text x="1020" y="224" fill="#A8FF35">VERIFIABLE REFEREE</text>

    <rect x="860" y="272" width="448" height="64" rx="10" fill="#0A0A0B" stroke="#A8FF35" stroke-opacity=".45"/>
    <text x="890" y="312" fill="#A8FF35">PREDICT</text>
    <text x="1000" y="312" fill="#FFFFFF">DISPUTE</text>
    <text x="1115" y="312" fill="#00F5FF">CLAIM</text>
  </g>

  <g stroke="#A8FF35" stroke-width="4" fill="none" opacity=".85">
    <path d="M42 42h80M42 42v80M1458 42h-80M1458 42v80M42 458h80M42 458v-80M1458 458h-80M1458 458v-80"/>
  </g>
</svg>
